<svg width="10" height="14" viewBox="0 0 10 14" fill="none" xmlns="http://www.w3.org/2000/svg">
<path d="M5.00016 6.66666C4.55814 6.66666 4.13421 6.49107 3.82165 6.17851C3.50909 5.86595 3.3335 5.44202 3.3335 5C3.3335 4.55797 3.50909 4.13404 3.82165 3.82148C4.13421 3.50892 4.55814 3.33333 5.00016 3.33333C5.44219 3.33333 5.86611 3.50892 6.17867 3.82148C6.49123 4.13404 6.66683 4.55797 6.66683 5C6.66683 5.21886 6.62372 5.43559 6.53996 5.6378C6.4562 5.84001 6.33344 6.02374 6.17867 6.17851C6.02391 6.33327 5.84018 6.45604 5.63797 6.53979C5.43576 6.62355 5.21903 6.66666 5.00016 6.66666ZM5.00016 0.333328C3.76249 0.333328 2.5755 0.824993 1.70033 1.70016C0.825161 2.57533 0.333496 3.76232 0.333496 5C0.333496 8.5 5.00016 13.6667 5.00016 13.6667C5.00016 13.6667 9.66683 8.5 9.66683 5C9.66683 3.76232 9.17516 2.57533 8.29999 1.70016C7.42482 0.824993 6.23784 0.333328 5.00016 0.333328Z" fill="black"/>
</svg>
