<svg width="35" height="35" viewBox="0 0 35 35" fill="none" xmlns="http://www.w3.org/2000/svg">
<path d="M15.0698 3.10938C15.3174 2.68449 15.6721 2.33195 16.0985 2.08692C16.5249 1.8419 17.0081 1.71295 17.4998 1.71295C17.9916 1.71295 18.4748 1.8419 18.9012 2.08692C19.3275 2.33195 19.6822 2.68449 19.9298 3.10938L23.3386 8.95938C23.5348 9.29702 23.7992 9.59009 24.1149 9.81994C24.4306 10.0498 24.7907 10.2114 25.1723 10.2944L31.7911 11.7269C32.2715 11.8313 32.7161 12.0599 33.0807 12.3898C33.4452 12.7197 33.7169 13.1393 33.8687 13.607C34.0204 14.0746 34.047 14.5738 33.9456 15.0549C33.8443 15.536 33.6186 15.9821 33.2911 16.3488L28.7817 21.3981C28.5216 21.6892 28.3249 22.0312 28.2042 22.4025C28.0834 22.7737 28.0413 23.166 28.0805 23.5544L28.7611 30.2913C28.8107 30.7806 28.7311 31.2744 28.5302 31.7234C28.3294 32.1724 28.0143 32.5608 27.6164 32.85C27.2185 33.1392 26.7517 33.3189 26.2627 33.3714C25.7736 33.4238 25.2793 33.347 24.8292 33.1488L18.6342 30.4188C18.2768 30.2612 17.8904 30.1798 17.4998 30.1798C17.1092 30.1798 16.7229 30.2612 16.3655 30.4188L10.1705 33.1488C9.72032 33.347 9.22606 33.4238 8.737 33.3714C8.24794 33.3189 7.78117 33.1392 7.38328 32.85C6.9854 32.5608 6.6703 32.1724 6.46944 31.7234C6.26858 31.2744 6.18898 30.7806 6.23858 30.2913L6.9192 23.5544C6.95861 23.1661 6.91678 22.7739 6.79637 22.4027C6.67597 22.0315 6.47963 21.6894 6.21983 21.3981L1.70858 16.3488C1.38107 15.9821 1.15539 15.536 1.05405 15.0549C0.952711 14.5738 0.979246 14.0746 1.13101 13.607C1.28278 13.1393 1.55447 12.7197 1.919 12.3898C2.28353 12.0599 2.72817 11.8313 3.20858 11.7269L9.82733 10.2944C10.2091 10.2118 10.5695 10.0506 10.8855 9.82111C11.2016 9.59159 11.4663 9.29875 11.663 8.96126L15.0698 3.10938Z" stroke="black" stroke-width="1.5" stroke-linecap="round" stroke-linejoin="round"/>
</svg>
