<svg width="39" height="39" viewBox="0 0 39 39" fill="none" xmlns="http://www.w3.org/2000/svg">
<path d="M14.1618 7.14C16.5375 2.88 17.7243 0.75 19.5 0.75C21.2756 0.75 22.4625 2.88 24.8381 7.14L25.4531 8.2425C26.1281 9.45375 26.4656 10.0594 26.9906 10.4587C27.5156 10.8581 28.1718 11.0062 29.4843 11.3025L30.6768 11.5725C35.2893 12.6169 37.5937 13.1381 38.1431 14.9025C38.6906 16.665 37.1193 18.5044 33.975 22.1813L33.1612 23.1319C32.2687 24.1763 31.8206 24.6994 31.62 25.3444C31.4193 25.9912 31.4868 26.6887 31.6218 28.0819L31.7456 29.3512C32.22 34.2581 32.4581 36.7106 31.0218 37.8C29.5856 38.8894 27.4256 37.8956 23.1093 35.9081L21.99 35.3944C20.7637 34.8281 20.1506 34.5469 19.5 34.5469C18.8493 34.5469 18.2362 34.8281 17.01 35.3944L15.8925 35.9081C11.5743 37.8956 9.41433 38.8894 7.97995 37.8019C6.54183 36.7106 6.77995 34.2581 7.25433 29.3512L7.37808 28.0837C7.51308 26.6887 7.58058 25.9913 7.37808 25.3463C7.17933 24.6994 6.7312 24.1762 5.8387 23.1337L5.02495 22.1813C1.88058 18.5063 0.309327 16.6669 0.856827 14.9025C1.40433 13.1381 3.71245 12.615 8.32495 11.5725L9.51745 11.3025C10.8281 11.0062 11.4825 10.8581 12.0093 10.4587C12.5362 10.0594 12.8718 9.45375 13.5468 8.2425L14.1618 7.14Z" fill="#E1A43F"/>
</svg>
