<svg width="31" height="24" viewBox="0 0 31 24" fill="none" xmlns="http://www.w3.org/2000/svg">
<path d="M20.1 0.805008L29.5283 10.2333C29.9965 10.7021 30.2595 11.3375 30.2595 12C30.2595 12.6625 29.9965 13.2979 29.5283 13.7667L20.1017 23.1967C19.6327 23.6657 18.9966 23.9291 18.3333 23.9291C17.6701 23.9291 17.034 23.6657 16.565 23.1967C16.096 22.7277 15.8325 22.0916 15.8325 21.4283C15.8325 20.7651 16.096 20.129 16.565 19.66L21.725 14.5H2.5C1.83696 14.5 1.20107 14.2366 0.732233 13.7678C0.263392 13.2989 0 12.663 0 12C0 11.337 0.263392 10.7011 0.732233 10.2322C1.20107 9.7634 1.83696 9.50001 2.5 9.50001H21.725L16.5667 4.34001C16.0979 3.87102 15.8346 3.23502 15.8348 2.57192C15.8349 1.90882 16.0985 1.27294 16.5675 0.804174C17.0365 0.335404 17.6725 0.0721399 18.3356 0.0722962C18.9987 0.0724525 19.6346 0.336017 20.1033 0.805008H20.1Z" fill="white"/>
</svg>
