<svg width="31" height="24" viewBox="0 0 31 24" fill="none" xmlns="http://www.w3.org/2000/svg">
<path d="M1.47161 10.2333C1.00344 10.7021 0.740479 11.3375 0.740479 12C0.740479 12.6625 1.00344 13.2979 1.47161 13.7667L10.8983 23.1967C11.1305 23.4289 11.4062 23.6131 11.7096 23.7388C12.013 23.8645 12.3382 23.9291 12.6666 23.9291C12.995 23.9291 13.3202 23.8645 13.6236 23.7388C13.927 23.6131 14.2027 23.4289 14.4349 23.1967C14.6672 22.9645 14.8514 22.6888 14.977 22.3854C15.1027 22.0819 15.1674 21.7568 15.1674 21.4283C15.1674 21.0999 15.1027 20.7747 14.977 20.4713C14.8514 20.1679 14.6672 19.8922 14.4349 19.66L9.27495 14.5H28.4999C29.163 14.5 29.7989 14.2366 30.2677 13.7678C30.7366 13.2989 30.9999 12.663 30.9999 12C30.9999 11.337 30.7366 10.7011 30.2677 10.2322C29.7989 9.7634 29.163 9.50001 28.4999 9.50001H9.27495L14.4349 4.34001C14.9037 3.87102 15.167 3.23502 15.1668 2.57192C15.1667 1.90882 14.9031 1.27294 14.4341 0.804174C13.9651 0.335404 13.3291 0.0721399 12.666 0.0722962C12.0029 0.0724525 11.367 0.336017 10.8983 0.805008L1.47161 10.2333Z" fill="white"/>
</svg>
