<svg width="16" height="13" viewBox="0 0 16 13" fill="none" xmlns="http://www.w3.org/2000/svg">
<path d="M8 0C9.06087 0 10.0783 0.341735 10.8284 0.950027C11.5786 1.55832 12 2.38334 12 3.24359C12 4.10385 11.5786 4.92887 10.8284 5.53716C10.0783 6.14545 9.06087 6.48719 8 6.48719C6.93913 6.48719 5.92172 6.14545 5.17157 5.53716C4.42143 4.92887 4 4.10385 4 3.24359C4 2.38334 4.42143 1.55832 5.17157 0.950027C5.92172 0.341735 6.93913 0 8 0ZM8 8.10898C12.42 8.10898 16 9.56049 16 11.3526V12.9744H0V11.3526C0 9.56049 3.58 8.10898 8 8.10898Z" fill="black"/>
</svg>
