<svg width="14" height="14" viewBox="0 0 14 14" fill="none" xmlns="http://www.w3.org/2000/svg">
<path fill-rule="evenodd" clip-rule="evenodd" d="M5.6664 0.888901L7.93415 3.91256L11.2493 3.08378L10.4373 6.33196C9.78909 6.26449 9.10565 6.48181 8.60015 7.04349C8.45743 7.20209 8.20875 7.20209 8.06603 7.04349C6.85997 5.70343 4.64109 6.32356 4.30459 8.09474L3.94259 10H1.81256L0.0834961 3.08378L3.39865 3.91256L5.6664 0.888901ZM11.7067 8.21918C11.4731 6.98974 9.93287 6.55928 9.09568 7.48946C8.68812 7.94231 7.97806 7.94231 7.5705 7.48946C6.73334 6.55928 5.19312 6.98974 4.95953 8.21918L4.36784 11.3334H12.2984L11.7067 8.21918ZM12.425 12H4.24118L4.1145 12.6667H2.99984V14H13.6665V12.6667H12.5517L12.425 12Z" fill="black"/>
</svg>
