<svg width="28" height="24" viewBox="0 0 28 24" fill="none" xmlns="http://www.w3.org/2000/svg">
<path fill-rule="evenodd" clip-rule="evenodd" d="M21.3337 0C21.7476 0 22.1559 0.096387 22.5262 0.281528C22.8965 0.466668 23.2186 0.735477 23.467 1.06667L27.051 5.84533C27.2304 6.08127 27.3261 6.37027 27.323 6.66667H27.3337V8C27.3337 9.29914 26.8596 10.5536 26.0003 11.528V21.3333C26.0003 22.0406 25.7194 22.7189 25.2193 23.219C24.7192 23.719 24.0409 24 23.3337 24H4.66699C3.95975 24 3.28147 23.719 2.78137 23.219C2.28128 22.7189 2.00033 22.0406 2.00033 21.3333V11.528C1.14102 10.5536 0.666911 9.29914 0.666992 8V6.66667H0.677659C0.674508 6.37027 0.770216 6.08127 0.949659 5.84533L4.53366 1.06667C4.78205 0.735477 5.10414 0.466668 5.47442 0.281528C5.8447 0.096387 6.25301 0 6.66699 0H21.3337ZM24.667 8H19.3337C19.3306 8.69198 19.5966 9.35806 20.0755 9.85754C20.5544 10.357 21.2087 10.6508 21.9002 10.6767C22.5917 10.7027 23.2663 10.4588 23.7813 9.99668C24.2963 9.53452 24.6115 8.89026 24.6603 8.2L24.667 8ZM16.667 8H11.3337C11.3306 8.69198 11.5966 9.35806 12.0755 9.85754C12.5544 10.357 13.2087 10.6508 13.9002 10.6767C14.5917 10.7027 15.2663 10.4588 15.7813 9.99668C16.2963 9.53452 16.6115 8.89026 16.6603 8.2L16.667 8ZM8.66699 8H3.33366C3.33056 8.69198 3.59657 9.35806 4.0755 9.85754C4.55442 10.357 5.20875 10.6508 5.90024 10.6767C6.59174 10.7027 7.26625 10.4588 7.78128 9.99668C8.29631 9.53452 8.61152 8.89026 8.66033 8.2L8.66699 8Z" fill="black"/>
</svg>
