<svg width="1440" height="537" viewBox="0 0 1440 537" fill="none" xmlns="http://www.w3.org/2000/svg">
<path d="M0 0.599976L40 40.2712C80 80.6875 160 158.912 240 179.4C320 199.887 400 158.912 480 129.671C560 99.3125 640 80.6875 720 99.8712C800 119.8 880 179.4 960 219.071C1040 259.487 1120 278.112 1200 258.929C1280 239 1360 179.4 1400 149.6L1440 119.8V537H1400C1360 537 1280 537 1200 537C1120 537 1040 537 960 537C880 537 800 537 720 537C640 537 560 537 480 537C400 537 320 537 240 537C160 537 80 537 40 537H0V0.599976Z" fill="#A4957B"/>
</svg>
